<svg width="29" height="30" viewBox="0 0 29 30" fill="none" xmlns="http://www.w3.org/2000/svg">
<path d="M3.85156 16.1719H5.65273C5.77734 16.1719 5.8793 16.0664 5.8793 15.9375V8.45801H20.8494V10.585C20.8494 10.6406 20.8664 10.6934 20.9004 10.7373C20.9195 10.7626 20.9432 10.7838 20.9702 10.7995C20.9972 10.8153 21.027 10.8254 21.0578 10.8292C21.0886 10.833 21.1198 10.8305 21.1497 10.8217C21.1795 10.813 21.2074 10.7983 21.2317 10.7783L25.29 7.48242C25.4118 7.33594 25.392 7.18066 25.29 7.0957L21.2317 3.80273C21.19 3.76818 21.138 3.74955 21.0845 3.75C20.9542 3.75 20.8466 3.86133 20.8466 3.99609V6.12305H5.65557C4.53691 6.12305 3.625 7.06641 3.625 8.22656V15.9375C3.625 16.0664 3.72695 16.1719 3.85156 16.1719ZM25.1484 13.8281H23.3473C23.2227 13.8281 23.1207 13.9336 23.1207 14.0625V21.542H8.15059V19.415C8.15059 19.3594 8.13359 19.3066 8.09961 19.2627C8.08053 19.2374 8.0568 19.2162 8.02978 19.2005C8.00276 19.1847 7.97299 19.1746 7.94219 19.1708C7.91139 19.167 7.88016 19.1695 7.85031 19.1783C7.82046 19.187 7.79257 19.2017 7.76826 19.2217L3.70996 22.5176C3.58818 22.6641 3.60801 22.8193 3.70996 22.9043L7.76826 26.1973C7.81074 26.2324 7.86172 26.25 7.91553 26.25C8.0458 26.25 8.15342 26.1387 8.15342 26.0039V23.877H23.3501C24.4688 23.877 25.3807 22.9336 25.3807 21.7734V14.0625C25.375 13.9336 25.273 13.8281 25.1484 13.8281Z" fill="black"/>
</svg>
