<svg width="47" height="52" viewBox="0 0 47 52" fill="none" xmlns="http://www.w3.org/2000/svg">
<path d="M43.2822 6.67468C42.3183 7.17335 41.3453 7.6771 40.3814 8.18695C44.2277 19.9773 40.2804 31.9414 32.8632 37.9234C29.0261 41.0211 24.2435 42.5141 19.1947 41.5289C14.256 40.5539 9.09061 37.2023 4.31167 30.8344C3.52864 31.4234 2.74561 32.0125 1.9635 32.6117C3.06047 34.2469 6.12282 38.4414 10.7769 41.6102C16.6244 45.6016 24.6566 47.8258 34.3045 40.6148C42.8875 34.1961 44.9988 25.5633 45.0355 18.4133C45.063 13.0305 43.8789 8.5607 43.2822 6.67468ZM38.8851 8.98218C33.1662 11.05 29.3474 13.4266 25.3634 16.1992C25.1431 16.4023 25.3818 17.0523 25.905 17.0219L40.2162 17.6516C40.2345 14.8383 39.8123 11.9133 38.8851 8.98218ZM35.305 13.4875L35.6171 15.275L31.9177 16.0773L31.6056 14.2898L35.305 13.4875ZM26.2355 18.8703C25.5562 18.8805 25.2166 19.5812 25.7949 20.4242L36.7646 30.682C38.6373 27.4625 39.849 23.6133 40.1427 19.4797L26.2355 18.8703ZM29.7054 20.15L33.1111 21.5516L32.542 23.2578L29.1363 21.8562L29.7054 20.15ZM19.1121 20.6477C19.0295 20.6477 18.9377 20.6781 18.8367 20.7391C14.4488 23.5727 9.62028 26.4266 5.69321 29.8086C8.49668 33.5258 11.3828 36.0851 14.2377 37.7203L19.6261 21.8562C19.9015 21.3891 19.5894 20.6375 19.1121 20.6477ZM24.2711 21.6023C23.7845 21.6023 23.4724 22.2828 23.5367 22.4758L27.6492 38.9594C29.1547 38.35 30.5775 37.4969 31.8902 36.4406C33.3498 35.2625 34.6716 33.8203 35.8007 32.1852L24.7025 21.7852C24.5464 21.6531 24.3996 21.6023 24.2711 21.6023ZM21.4529 22.3133C21.3427 22.3234 21.2234 22.4148 21.1224 22.6687L15.7339 38.4922C17.0007 39.0711 18.2584 39.4773 19.4884 39.7211C21.7742 40.168 23.9865 40.0664 26.0703 39.4977L21.9027 22.7805C21.8293 22.557 21.6457 22.3133 21.4529 22.3133ZM15.4953 24.832L16.7621 26.0102L13.742 29.9406L12.4752 28.7625L15.4953 24.832ZM27.4839 26.5891L29.43 29.2805L28.1449 30.418L26.1988 27.7266L27.4839 26.5891ZM20.2687 29.0469L21.9211 29.1078L21.7742 33.4242L20.1218 33.3633L20.2687 29.0469Z" fill="black"/>
</svg>
